<svg width="80.000000" height="76.000000" viewBox="0 0 80 76" fill="none" xmlns="http://www.w3.org/2000/svg" xmlns:xlink="http://www.w3.org/1999/xlink">
	<desc>
			Created with Pixso.
	</desc>
	<defs/>
	<path d="M57.31 70Q57.89 70.19 58.54 70.19C59.26 70.19 59.91 70.01 60.5 69.66C61.1 69.28 61.57 68.8 61.92 68.19Q62.13 67.84 62.26 67.45Q62.46 66.85 62.46 66.18L62.44 59.84Q62.44 59.11 62.2 58.46Q62.08 58.14 61.9 57.84C61.55 57.24 61.08 56.76 60.5 56.4C59.91 56.04 59.26 55.86 58.54 55.86C57.83 55.86 57.18 56.04 56.58 56.4C55.98 56.76 55.5 57.24 55.14 57.84C54.79 58.44 54.62 59.1 54.62 59.84L54.6 66.18C54.6 66.91 54.78 67.58 55.14 68.19C55.5 68.8 55.97 69.28 56.56 69.66Q56.92 69.87 57.31 70ZM73 69.66C73.6 70.01 74.26 70.19 74.98 70.19C75.7 70.19 76.36 70.01 76.94 69.66C77.54 69.28 78.02 68.8 78.36 68.19Q78.57 67.84 78.7 67.45Q78.9 66.85 78.9 66.18L78.88 59.84Q78.88 59.11 78.65 58.46Q78.53 58.14 78.34 57.84C78 57.24 77.53 56.76 76.94 56.4C76.36 56.04 75.7 55.86 74.98 55.86C74.28 55.86 73.62 56.04 73.02 56.4C72.42 56.76 71.94 57.24 71.58 57.84C71.24 58.44 71.06 59.1 71.06 59.84L71.04 66.18Q71.04 66.85 71.24 67.45Q71.37 67.84 71.58 68.19C71.94 68.8 72.42 69.28 73 69.66ZM0.8 69.9C0.8 69.96 0.83 70 0.9 70L4.48 69.98C5.26 69.96 5.97 69.77 6.6 69.4Q7.07 69.12 7.44 68.74Q7.82 68.37 8.1 67.9C8.47 67.26 8.66 66.55 8.66 65.78L8.66 60.04Q8.66 59.31 8.42 58.66Q8.3 58.34 8.12 58.04C7.76 57.42 7.27 56.94 6.66 56.58Q6.34 56.39 6.01 56.27Q5.37 56.04 4.66 56.06L0.92 56.08Q0.88 56.08 0.86 56.1Q0.84 56.12 0.84 56.16L0.8 69.9ZM10.23 69.9C10.23 69.96 10.26 70 10.31 70L12.57 70Q12.6 70 12.62 69.98Q12.65 69.96 12.65 69.9L12.67 64.01L13.99 64.01C14.48 64.01 14.9 64.19 15.23 64.56C15.58 64.9 15.75 65.32 15.75 65.8L15.75 69.94C15.75 69.98 15.78 70 15.83 70L18.09 70C18.16 70 18.19 69.96 18.19 69.9L18.17 65.8C18.17 64.72 17.81 63.78 17.09 62.98C17.25 62.84 17.43 62.64 17.63 62.38C17.83 62.1 18 61.76 18.15 61.38C18.3 60.98 18.37 60.53 18.37 60.04Q18.37 59.17 18.05 58.45Q17.95 58.24 17.83 58.04C17.47 57.44 16.98 56.96 16.37 56.62Q16.01 56.4 15.62 56.27Q15.04 56.08 14.39 56.08L10.35 56.08Q10.31 56.08 10.29 56.1Q10.27 56.12 10.27 56.16L10.23 69.9ZM19.88 69.9C19.88 69.96 19.91 70 19.98 70L22.24 70Q22.27 70 22.29 69.98Q22.32 69.96 22.32 69.9L22.3 56.16C22.3 56.1 22.27 56.08 22.22 56.08L19.98 56.08Q19.94 56.08 19.92 56.1Q19.9 56.12 19.9 56.16L19.88 69.9ZM26.22 69.9C26.23 69.96 26.26 70 26.32 70L28.74 70C28.79 70 28.82 69.96 28.84 69.9L31.56 56.16C31.57 56.1 31.54 56.08 31.48 56.08L29.24 56.08Q29.2 56.08 29.17 56.09Q29.15 56.11 29.14 56.16L27.54 65.32L25.9 56.16C25.88 56.1 25.85 56.08 25.8 56.08L23.54 56.08Q23.48 56.08 23.46 56.1Q23.45 56.12 23.46 56.16L26.22 69.9ZM32.73 69.9C32.73 69.96 32.76 70 32.81 70L39.27 70C39.32 70 39.35 69.97 39.35 69.92L39.35 67.64C39.35 67.57 39.32 67.54 39.27 67.54L35.15 67.54L35.15 64.04L39.27 64.04C39.32 64.04 39.35 64.01 39.35 63.96L39.33 61.7C39.33 61.64 39.3 61.62 39.25 61.62L35.15 61.62L35.15 58.5L39.25 58.5C39.3 58.5 39.33 58.47 39.33 58.42L39.33 56.18C39.33 56.11 39.3 56.08 39.25 56.08L32.83 56.08C32.78 56.08 32.75 56.1 32.75 56.16L32.73 69.9ZM44.1 69.9C44.1 69.96 44.12 70 44.18 70L46.44 70C46.49 70 46.52 69.96 46.52 69.9L46.54 59.7L48.62 62.74L50.72 59.7L50.74 69.9C50.74 69.96 50.76 70 50.82 70L53.08 70C53.13 70 53.16 69.96 53.16 69.9L53.12 56.16C53.12 56.1 53.09 56.08 53.04 56.08L50.58 56.08C50.52 56.08 50.48 56.1 50.44 56.16L48.62 58.8L46.8 56.16C46.76 56.1 46.71 56.08 46.66 56.08L44.22 56.08C44.16 56.08 44.14 56.1 44.14 56.16L44.1 69.9ZM65.64 69.9C65.64 69.96 65.67 70 65.72 70L67.98 70C68.04 70 68.06 69.96 68.06 69.9L68.04 58.5L70.66 58.5C70.72 58.5 70.74 58.46 70.74 58.4L70.74 56.16C70.74 56.1 70.71 56.08 70.64 56.08L63.04 56.08C62.99 56.08 62.96 56.1 62.96 56.16L62.94 58.4C62.94 58.46 62.98 58.5 63.04 58.5L65.64 58.5L65.64 69.9ZM59.58 67.3C59.28 67.62 58.94 67.78 58.54 67.78C58.12 67.78 57.77 67.62 57.48 67.32C57.18 67 57.04 66.62 57.04 66.18L57.04 59.84C57.04 59.38 57.18 59.01 57.48 58.72C57.77 58.41 58.12 58.26 58.54 58.26C58.96 58.26 59.32 58.41 59.6 58.72C59.88 59.02 60.02 59.4 60.02 59.84L60.04 66.18C60.04 66.59 59.88 66.96 59.58 67.3ZM76.02 67.3C75.73 67.62 75.38 67.78 74.98 67.78C74.57 67.78 74.22 67.62 73.92 67.32C73.63 67 73.48 66.62 73.48 66.18L73.48 59.84C73.48 59.38 73.63 59.01 73.92 58.72C74.22 58.41 74.57 58.26 74.98 58.26Q75.33 58.26 75.61 58.39Q75.85 58.5 76.04 58.72C76.32 59.02 76.46 59.4 76.46 59.84L76.48 66.18C76.48 66.59 76.33 66.96 76.02 67.3ZM4.48 67.54L3.24 67.54L3.26 58.48L4.66 58.46C5.08 58.44 5.45 58.6 5.76 58.92C6.08 59.22 6.24 59.59 6.24 60.02L6.24 65.78C6.24 66.26 6.06 66.67 5.72 67.01C5.38 67.36 4.97 67.54 4.48 67.54ZM14.39 61.62L12.67 61.62L12.67 58.48L14.39 58.48Q14.69 58.48 14.95 58.58Q15.25 58.69 15.49 58.94C15.81 59.24 15.97 59.61 15.97 60.04C15.97 60.48 15.81 60.85 15.49 61.16C15.17 61.46 14.8 61.62 14.39 61.62Z" fill="#2F3035" fill-opacity="1.000000" fill-rule="evenodd"/>
	<path d="M59.04 7.95C58.34 7.25 57.23 7.14 56.41 7.7C53.31 9.82 37.77 20.43 36.1 22.1C33.68 24.53 33.68 28.47 36.1 30.89C37.31 32.1 38.9 32.7 40.5 32.7C42.09 32.7 43.68 32.1 44.89 30.89C46.56 29.22 57.17 13.68 59.29 10.58C59.85 9.76 59.74 8.65 59.04 7.95ZM41.96 27.96C41.15 28.77 39.84 28.77 39.03 27.96C38.22 27.15 38.22 25.84 39.03 25.03C39.68 24.39 44.09 21.24 49.52 17.47C45.75 22.9 42.6 27.31 41.96 27.96Z" fill="#2F3035" fill-opacity="1.000000" fill-rule="nonzero"/>
	<path d="M23.54 36.12L20.99 37.37C19.12 34.03 18.14 30.31 18.14 26.5C18.14 23.7 18.65 21.03 19.59 18.56L22.52 19.96C22.81 20.1 23.11 20.17 23.41 20.17C24.18 20.17 24.93 19.73 25.28 18.99C25.78 17.96 25.34 16.72 24.31 16.23L21.42 14.84C25.01 8.98 31.23 4.89 38.42 4.23L38.42 7.34C38.42 8.49 39.35 9.41 40.5 9.41C41.64 9.41 42.57 8.49 42.57 7.34L42.57 4.23C45.03 4.45 47.42 5.08 49.68 6.1C50.73 6.57 51.95 6.11 52.42 5.07C52.89 4.03 52.43 2.8 51.39 2.33C47.95 0.78 44.29 0 40.5 0C33.42 0 26.76 2.75 21.76 7.76C16.75 12.76 14 19.42 14 26.5C14 31.73 15.55 36.81 18.48 41.21C18.88 41.8 19.53 42.13 20.21 42.13C20.51 42.13 20.82 42.06 21.11 41.92L25.36 39.85C26.39 39.34 26.81 38.11 26.31 37.08C25.81 36.05 24.57 35.62 23.54 36.12Z" fill="#2F3035" fill-opacity="1.000000" fill-rule="nonzero"/>
	<path d="M64.66 15.6C64.19 14.56 62.96 14.1 61.92 14.57C60.88 15.04 60.41 16.26 60.89 17.31C62.19 20.2 62.85 23.29 62.85 26.5C62.85 30.31 61.87 34.05 60 37.39L57.33 36.12C56.29 35.62 55.06 36.06 54.57 37.1C54.08 38.13 54.51 39.36 55.55 39.85L59.89 41.92C60.18 42.06 60.48 42.13 60.78 42.13C61.46 42.13 62.11 41.8 62.51 41.21C65.44 36.81 67 31.73 67 26.5C67 22.7 66.21 19.04 64.66 15.6Z" fill="#2F3035" fill-opacity="1.000000" fill-rule="nonzero"/>
</svg>
